<?xml version="1.0" standalone="no"?><!DOCTYPE svg PUBLIC "-//W3C//DTD SVG 1.1//EN" "http://www.w3.org/Graphics/SVG/1.1/DTD/svg11.dtd"><svg class="icon" width="200px" height="200.00px" viewBox="0 0 1024 1024" version="1.1" xmlns="http://www.w3.org/2000/svg"><path d="M947.072 546.27C855.688 696.757 688.313 798.075 512 798.075c-176.313 0-343.688-101.815-435.073-251.806-5.96-10.43-9.933-21.854-9.933-34.27s3.973-23.84 9.933-34.27C168.313 327.74 335.687 225.925 512 225.925c176.313 0 343.688 101.815 435.072 251.806 5.959 10.43 9.934 21.854 9.934 34.27S953.031 535.84 947.072 546.27zM704.207 336.68c19.865 33.772 30.295 72.512 30.295 111.748 0 122.675-99.828 222.503-222.502 222.503-122.675 0-222.503-99.828-222.503-222.503 0-39.236 10.43-77.976 30.296-111.748C242.314 376.412 177.749 438.991 130.566 512 215.495 643.118 352.572 734.503 512 734.503S808.504 643.118 893.434 512C846.25 438.991 781.686 376.412 704.207 336.68zM512 297.443c-82.942 0-150.984 68.042-150.984 150.984 0 12.913 10.927 23.84 23.84 23.84s23.84-10.927 23.84-23.84c0-56.619 46.686-103.305 103.305-103.305 12.912 0 23.84-10.927 23.84-23.84S524.912 297.443 512 297.443z" /></svg>