<?xml version="1.0" standalone="no"?><!DOCTYPE svg PUBLIC "-//W3C//DTD SVG 1.1//EN" "http://www.w3.org/Graphics/SVG/1.1/DTD/svg11.dtd"><svg t="1536093771040" class="icon" style="" viewBox="0 0 1024 1024" version="1.1" xmlns="http://www.w3.org/2000/svg" p-id="10232" xmlns:xlink="http://www.w3.org/1999/xlink" width="200" height="200"><defs><style type="text/css"></style></defs><path d="M535.658749 1010.241236c1.779151-2.368247 2.704309-3.605745 3.759938-5.029066 3.004788-4.036695 6.476108-8.753421 10.382332-14.110641a3015.581158 3015.581158 0 0 0 36.867954-51.737699c38.105452-54.639691 76.210903-112.624185 111.817637-171.510116 29.336216-48.511506 55.707181-95.591784 78.389375-140.541034 55.813931-110.607815 87.000463-203.22644 87.000463-274.147336C863.876448 135.701745 718.954749 1.976834 512 1.976834 310.426193 1.976834 160.123552 145.2459 160.123552 353.169297c0 70.284355 34.630178 167.097822 96.228324 285.850193 20.503722 39.532726 43.691985 80.812973 69.07058 123.350487 35.571151 59.605498 73.641019 118.716788 111.710888 174.700726a3410.354903 3410.354903 0 0 0 36.824463 53.109621 2269.832402 2269.832402 0 0 0 13.11827 18.337112c12.714996 17.396139 36.603058 17.585915 48.582672 1.727753z m-49.484108-106.519722c-37.453097-55.074595-74.906193-113.225143-109.821035-171.743383-24.809266-41.572819-47.428201-81.84488-67.358641-120.266625C251.532355 500.921822 219.428571 411.181467 219.428571 353.169297c0-174.514903 123.133035-291.887444 292.571429-291.887444 175.218656 0 292.571429 108.283058 292.571429 291.887444 0 59.265483-28.695722 144.478888-80.642966 247.428448-21.946811 43.498255-47.594255 89.277776-76.187181 136.571552-34.883212 57.684015-72.300726 114.620788-109.714286 168.268108a3091.254363 3091.254363 0 0 1-25.671166 36.263043 3493.974981 3493.974981 0 0 1-26.181189-37.978934z" p-id="10233"></path><path d="M638.976 476.851892A171.371737 171.371737 0 0 0 678.054054 367.69112c0-94.982919-77.001637-171.984556-171.984556-171.984556S334.084942 272.708201 334.084942 367.69112s77.001637 171.984556 171.984556 171.984556a29.65251 29.65251 0 1 0 0-59.30502c-62.230734 0-112.679537-50.448803-112.679537-112.679536S443.838764 255.011583 506.069498 255.011583s112.679537 50.448803 112.679537 112.679537c0 26.477714-9.125066 51.476757-25.580232 71.498131a29.65251 29.65251 0 1 0 45.807197 37.658687z" p-id="10234"></path></svg>